#!OML:ASF F:\VICON\USERDATA\INSTALL\rory3\rory3.ASF
:FULLY-SPECIFIED
:DEGREES
2810
root 0.657049 17.0268 -1.6259 2.42651 3.23358 -1.90181
lowerback 11.4579 -0.0314004 -2.5974
upperback 10.5425 -0.303904 3.66404
thorax 4.73832 -0.45661 5.34558
lowerneck -4.63188 -9.55258 -20.3505
upperneck 11.7021 -13.7301 19.7499
head 7.16292 -6.52402 8.62935
rclavicle -1.13307e-014 -7.15625e-015
rhumerus 76.5121 14.8024 -47.2496
rradius 35.463
rwrist -34.1675
rhand -17.8698 -6.22665
rfingers 7.12502
rthumb 8.39599 -36.0398
lclavicle -1.13307e-014 -7.15625e-015
lhumerus 79.5418 -16.0986 54.3474
lradius 26.7887
lwrist 49.7561
lhand -12.0648 30.6475
lfingers 7.12502
lthumb 13.9945 60.1565
rfemur -16.0959 2.47104 17.502
rtibia 29.023
rfoot -17.0261 -6.76984
rtoes -27.6849
lfemur -20.6525 -6.26155 -17.3761
ltibia 35.3427
lfoot -15.9946 0.0518279
ltoes -17.7407
2811
root 0.653423 17.0279 -1.62453 2.40874 3.24763 -1.90007
lowerback 11.4043 -0.0693897 -2.57244
upperback 10.5667 -0.351853 3.64443
thorax 4.79857 -0.48019 5.31378
lowerneck -4.71731 -9.55174 -20.3115
upperneck 11.782 -13.712 19.6498
head 7.18839 -6.51322 8.58692
rclavicle 8.15017e-015 6.75868e-015
rhumerus 76.5369 14.8459 -47.1506
rradius 35.6173
rwrist -34.2193
rhand -17.9356 -6.38409
rfingers 7.12502
rthumb 8.33246 -36.1998
lclavicle 8.15017e-015 6.75868e-015
lhumerus 79.5573 -16.0378 54.0569
lradius 26.8672
lwrist 50.0618
lhand -12.264 30.757
lfingers 7.12502
lthumb 13.8026 60.2791
rfemur -16.0591 2.46499 17.5153
rtibia 29.0181
rfoot -17.0399 -6.82989
rtoes -27.9695
lfemur -20.6076 -6.28807 -17.3724
ltibia 35.3261
lfoot -16.0038 -0.00662863
ltoes -17.8041
2812
root 0.649778 17.0294 -1.62431 2.41218 3.26354 -1.89682
lowerback 11.3691 -0.0962425 -2.56513
upperback 10.572 -0.386096 3.62227
thorax 4.82679 -0.496763 5.28817
lowerneck -4.73152 -9.54972 -20.3221
upperneck 11.7937 -13.7172 19.7079
head 7.20132 -6.51263 8.60904
rclavicle 5.1684e-015 2.98177e-014
rhumerus 76.5307 14.8679 -47.1873
rradius 35.7028
rwrist -34.1423
rhand -17.9102 -6.53194
rfingers 7.12502
rthumb 8.35702 -36.3466
lclavicle 5.1684e-015 2.98177e-014
lhumerus 79.5233 -15.9986 54.0489
lradius 26.8622
lwrist 49.9973
lhand -12.3008 30.8991
lfingers 7.12502
lthumb 13.7671 60.4236
rfemur -16.0427 2.47411 17.5203
rtibia 28.9911
rfoot -17.0593 -6.81539
rtoes -28.1035
lfemur -20.6009 -6.31336 -17.3624
ltibia 35.315
lfoot -15.9667 -0.0684943
ltoes -17.5685
2813
root 0.646143 17.0307 -1.6238 2.40986 3.24455 -1.94199
lowerback 11.3411 -0.0896928 -2.50403
upperback 10.5713 -0.372568 3.60592
thorax 4.83803 -0.485623 5.23465
lowerneck -4.79425 -9.574 -20.2522
upperneck 11.8809 -13.7562 19.6907
head 7.24203 -6.52491 8.58461
rclavicle 1.8487e-014 1.59028e-015
rhumerus 76.4716 14.8595 -47.2622
rradius 35.7261
rwrist -34.0939
rhand -17.9431 -6.54697
rfingers 7.12502
rthumb 8.32522 -36.3629
lclavicle 1.8487e-014 1.59028e-015
lhumerus 79.5873 -16.0298 53.9684
lradius 26.8121
lwrist 49.9837
lhand -12.1612 30.9676
lfingers 7.12502
lthumb 13.9017 60.483
rfemur -16.0429 2.48478 17.5852
rtibia 28.9708
rfoot -17.0224 -6.80239
rtoes -27.9313
lfemur -20.5974 -6.29966 -17.2916
ltibia 35.2951
lfoot -16.0281 -0.0621465
ltoes -17.5389
2814
root 0.643943 17.031 -1.62361 2.39373 3.25246 -1.99422
lowerback 11.3133 -0.111391 -2.47264
upperback 10.5911 -0.400231 3.64386
thorax 4.87827 -0.500449 5.25932
lowerneck -4.85305 -9.58543 -20.2468
upperneck 11.8937 -13.7531 19.624
head 7.25025 -6.52312 8.55736
rclavicle -2.04748e-014 3.57812e-015
rhumerus 76.543 14.8966 -47.2699
rradius 35.704
rwrist -34.0944
rhand -17.9424 -6.56622
rfingers 7.12502
rthumb 8.32593 -36.3821
lclavicle -2.04748e-014 3.57812e-015
lhumerus 79.6276 -15.9537 53.8164
lradius 26.7886
lwrist 50.1177
lhand -12.1306 30.9332
lfingers 7.12502
lthumb 13.9311 60.4465
rfemur -16.023 2.44786 17.6559
rtibia 28.9736
rfoot -17.0126 -6.79253
rtoes -27.7928
lfemur -20.5761 -6.31308 -17.2238
ltibia 35.2716
lfoot -16.0168 0.00851009
ltoes -17.6153
2815
root 0.641433 17.03 -1.6243 2.38699 3.25654 -1.91042
lowerback 11.2864 -0.125291 -2.5914
upperback 10.6242 -0.427243 3.6456
thorax 4.93504 -0.523687 5.33106
lowerneck -4.94721 -9.59216 -20.2183
upperneck 11.8941 -13.7381 19.5586
head 7.25671 -6.51276 8.52676
rclavicle -7.35503e-015 -1.19271e-014
rhumerus 76.6497 14.9374 -47.3178
rradius 35.6607
rwrist -34.0695
rhand -17.8825 -6.56729
rfingers 7.12502
rthumb 8.38377 -36.3809
lclavicle -7.35503e-015 -1.19271e-014
lhumerus 79.6371 -15.8694 53.8346
lradius 26.7289
lwrist 49.9958
lhand -12.042 30.955
lfingers 7.12502
lthumb 14.0165 60.4624
rfemur -16.0256 2.39726 17.5724
rtibia 29.0055
rfoot -17.0353 -6.77055
rtoes -27.4668
lfemur -20.5494 -6.33856 -17.3044
ltibia 35.227
lfoot -15.931 -0.109213
ltoes -17.0766
2816
root 0.637435 17.0283 -1.62676 2.35834 3.2486 -1.85685
lowerback 11.3335 -0.094907 -2.59562
upperback 10.6163 -0.386413 3.60496
thorax 4.89503 -0.500547 5.28733
lowerneck -4.77465 -9.59344 -20.2583
upperneck 11.7124 -13.7679 19.7155
head 7.19066 -6.53206 8.58968
rclavicle 1.53064e-014 -5.96354e-015
rhumerus 76.5709 14.8782 -47.396
rradius 35.6189
rwrist -34.1603
rhand -17.8487 -6.50413
rfingers 7.12502
rthumb 8.41631 -36.3164
lclavicle 1.53064e-014 -5.96354e-015
lhumerus 79.6771 -15.9702 53.8434
lradius 26.7157
lwrist 49.8718
lhand -12.0575 30.9048
lfingers 7.12502
lthumb 14.0016 60.4133
rfemur -16.0247 2.4223 17.5285
rtibia 29.0521
rfoot -17.0588 -6.804
rtoes -27.107
lfemur -20.4904 -6.33057 -17.347
ltibia 35.1528
lfoot -15.8275 -0.271223
ltoes -16.2598
2817
root 0.634863 17.0289 -1.6258 2.339 3.25312 -1.72769
lowerback 11.3248 -0.0616393 -2.63815
upperback 10.5965 -0.342769 3.5284
thorax 4.87212 -0.476981 5.22638
lowerneck -4.59004 -9.5938 -20.3466
upperneck 11.5957 -13.8133 19.9377
head 7.1555 -6.55818 8.68464
rclavicle 3.3197e-014 -1.51076e-014
rhumerus 76.4138 14.8006 -47.4602
rradius 35.64
rwrist -34.1839
rhand -17.803 -6.43123
rfingers 7.12502
rthumb 8.46047 -36.2418
lclavicle 3.3197e-014 -1.51076e-014
lhumerus 79.7599 -16.1234 53.7051
lradius 26.6945
lwrist 49.8615
lhand -12.1728 30.8457
lfingers 7.12502
lthumb 13.8905 60.3618
rfemur -16.0222 2.37777 17.389
rtibia 29.1144
rfoot -17.1151 -6.75639
rtoes -27.3828
lfemur -20.3889 -6.34462 -17.4932
ltibia 35.0407
lfoot -15.8269 -0.171191
ltoes -16.8248
2818
root 0.633132 17.0313 -1.62062 2.24721 3.30199 -1.52814
lowerback 11.3333 -0.0367817 -2.77124
upperback 10.6071 -0.31755 3.47612
thorax 4.87788 -0.470677 5.24483
lowerneck -4.45807 -9.60568 -20.4475
upperneck 11.5588 -13.8516 20.0187
head 7.14292 -6.58462 8.73051
rclavicle 1.09332e-014 -1.98785e-015
rhumerus 76.2579 14.7293 -47.5148
rradius 35.6225
rwrist -34.1077
rhand -17.6927 -6.34433
rfingers 7.12502
rthumb 8.5669 -36.1505
lclavicle 1.09332e-014 -1.98785e-015
lhumerus 79.8626 -16.2558 53.6195
lradius 26.6195
lwrist 49.8898
lhand -12.1818 30.6829
lfingers 7.12502
lthumb 13.8818 60.1996
rfemur -15.8934 2.24485 17.179
rtibia 29.1536
rfoot -17.1834 -6.69039
rtoes -27.8022
lfemur -20.1887 -6.39956 -17.7415
ltibia 34.9513
lfoot -15.8508 -0.0783177
ltoes -17.3746
2819
root 0.631754 17.0335 -1.617 2.17866 3.34849 -1.40793
lowerback 11.3311 -0.0447976 -2.87077
upperback 10.6222 -0.334481 3.4573
thorax 4.89946 -0.485454 5.28285
lowerneck -4.38595 -9.59062 -20.4942
upperneck 11.5018 -13.8337 20.035
head 7.11289 -6.58175 8.74878
rclavicle 7.7526e-015 -3.97569e-015
rhumerus 76.2193 14.733 -47.3725
rradius 35.6866
rwrist -34.2248
rhand -17.7454 -6.27577
rfingers 7.12502
rthumb 8.51607 -36.084
lclavicle 7.7526e-015 -3.97569e-015
lhumerus 79.8823 -16.2855 53.609
lradius 26.5529
lwrist 49.8941
lhand -12.1197 30.4576
lfingers 7.12502
lthumb 13.9416 59.9702
rfemur -15.7965 2.14771 17.051
rtibia 29.1774
rfoot -17.2533 -6.62346
rtoes -27.6537
lfemur -20.064 -6.45075 -17.8859
ltibia 34.9089
lfoot -15.9118 -0.0522929
ltoes -17.7953
2820
root 0.628133 17.0327 -1.62126 2.19188 3.38085 -1.5336
lowerback 11.3561 -0.0466891 -2.68845
upperback 10.5832 -0.323572 3.4464
thorax 4.83759 -0.465548 5.16611
lowerneck -4.25958 -9.58031 -20.4355
upperneck 11.4196 -13.8414 20.07
head 7.06431 -6.58903 8.75418
rclavicle -1.59028e-015 3.97569e-016
rhumerus 76.1244 14.7018 -47.3221
rradius 35.7154
rwrist -34.3341
rhand -17.9114 -6.21592
rfingers 7.12502
rthumb 8.35586 -36.0306
lclavicle -1.59028e-015 3.97569e-016
lhumerus 79.973 -16.3852 53.3163
lradius 26.5717
lwrist 50.0905
lhand -12.1532 30.3579
lfingers 7.12502
lthumb 13.9093 59.8727
rfemur -15.839 2.17126 17.2062
rtibia 29.1779
rfoot -17.2327 -6.67574
rtoes -27.4174
lfemur -20.1212 -6.45018 -17.7232
ltibia 34.9245
lfoot -15.8963 -0.0774444
ltoes -17.8625
2821
root 0.623442 17.0299 -1.62709 2.22313 3.37619 -1.65533
lowerback 11.4147 -0.0415995 -2.59706
upperback 10.5236 -0.311248 3.48395
thorax 4.73793 -0.451814 5.15289
lowerneck -4.18189 -9.57302 -20.4574
upperneck 11.4135 -13.8445 20.0843
head 7.0518 -6.59511 8.76594
rclavicle -5.56597e-015 2.78299e-015
rhumerus 76.0803 14.7354 -47.4203
rradius 35.6552
rwrist -34.2894
rhand -17.9173 -6.23164
rfingers 7.12502
rthumb 8.35019 -36.0466
lclavicle -5.56597e-015 2.78299e-015
lhumerus 80.0158 -16.4315 53.068
lradius 26.5835
lwrist 50.2733
lhand -12.3061 30.3416
lfingers 7.12502
lthumb 13.762 59.8664
rfemur -15.9136 2.27862 17.3598
rtibia 29.1704
rfoot -17.1652 -6.80231
rtoes -27.7871
lfemur -20.2268 -6.3749 -17.5576
ltibia 34.9785
lfoot -15.8698 -0.041173
ltoes -18.3466
